<!-- Generated by IcoMoon.io -->
<svg version="1.1" xmlns="http://www.w3.org/2000/svg" width="1024" height="1024" viewBox="0 0 1024 1024">
<title></title>
<g id="icomoon-ignore">
</g>
<path stroke-linejoin="miter" stroke-linecap="butt" stroke-miterlimit="4" stroke-width="18.2857" stroke="#000" fill="#000" d="M789.702 491.549c-9.527 2.198-16.256 10.693-16.256 20.451M789.702 491.549l-0.015 0.004c0.007-0.004 0.011-0.004 0.015-0.004zM789.702 491.549c97.101-22.579 164.875-107.897 164.875-207.559 0-117.614-95.693-213.309-213.303-213.309-100.367 0-188.171 71.249-208.724 169.33-2.033 9.725-10.613 16.691-20.546 16.691s-18.516-6.966-20.549-16.691c-20.557-98.081-108.361-169.33-208.728-169.33-117.608 0-213.304 95.695-213.304 213.309 0 99.662 67.775 184.98 164.875 207.559l539.147 20.451M773.446 512c0 9.75 6.725 18.242 16.241 20.447 97.108 22.572 164.89 107.893 164.89 207.561 0 117.614-95.693 213.31-213.303 213.31-100.367 0-188.171-71.248-208.724-169.329M773.446 512l-240.896 271.989M532.55 783.989c-2.033-9.728-10.613-16.691-20.546-16.691s-18.516 6.963-20.549 16.688c-20.557 98.085-108.361 169.333-208.728 169.333-117.608 0-213.304-95.696-213.304-213.31 0-99.668 67.781-184.989 164.889-207.561 9.519-2.205 16.241-10.697 16.241-20.447s-6.723-18.245-16.241-20.447l298.238 292.436zM996.572 283.99c0-140.783-114.52-255.304-255.298-255.304-98.699 0-187.158 57.483-229.27 143.082-42.119-85.598-130.586-143.082-229.277-143.082-140.777 0-255.298 114.521-255.298 255.304 0 98.624 55.523 185.594 140.485 228.010-84.962 42.412-140.485 129.382-140.485 228.008 0 140.782 114.521 255.305 255.298 255.305 98.692 0 187.158-57.487 229.277-143.082 42.112 85.595 130.571 143.082 229.27 143.082 140.778 0 255.298-114.523 255.298-255.305 0-98.626-55.523-185.596-140.485-228.008 84.963-42.416 140.485-129.386 140.485-228.010z"></path>
</svg>
