<!-- Generated by IcoMoon.io -->
<svg version="1.1" xmlns="http://www.w3.org/2000/svg" width="1024" height="1024" viewBox="0 0 1024 1024">
<title></title>
<g id="icomoon-ignore">
</g>
<path fill="#efeef3" d="M134.737 0h754.526c74.413 0 134.737 60.324 134.737 134.737v754.526c0 74.413-60.324 134.737-134.737 134.737h-754.526c-74.413 0-134.737-60.324-134.737-134.737v-754.526c0-74.413 60.324-134.737 134.737-134.737z"></path>
<path fill="#0d0d0d" d="M512.21 373.865c-76.512 0-138.227 61.715-138.227 138.224 0 76.512 61.715 138.227 138.227 138.227s138.227-61.715 138.227-138.227c0-76.509-61.715-138.224-138.227-138.224zM512.21 601.956c-49.443 0-89.864-40.302-89.864-89.867 0-49.562 40.3-89.864 89.864-89.864s89.864 40.302 89.864 89.864c0 49.564-40.421 89.867-89.864 89.867v0zM688.33 368.212c0 17.923-14.436 32.24-32.24 32.24-17.925 0-32.243-14.436-32.243-32.24 0-17.807 14.438-32.243 32.243-32.243s32.24 14.436 32.24 32.243zM779.878 400.931c-2.045-43.186-11.908-81.443-43.55-112.961-31.518-31.519-69.772-41.384-112.961-43.549-44.512-2.526-177.925-2.526-222.437 0-43.067 2.045-81.322 11.91-112.961 43.428-31.639 31.52-41.384 69.775-43.549 112.963-2.526 44.512-2.526 177.925 0 222.434 2.045 43.189 11.91 81.446 43.549 112.963 31.639 31.52 69.775 41.383 112.961 43.55 44.512 2.525 177.925 2.525 222.437 0 43.189-2.045 81.443-11.911 112.961-43.55 31.52-31.518 41.386-69.775 43.55-112.963 2.528-44.509 2.528-177.804 0-222.316v0zM722.375 671.008c-9.383 23.579-27.548 41.744-51.249 51.249-35.49 14.075-119.698 10.825-158.917 10.825s-123.548 3.129-158.917-10.825c-23.579-9.386-41.744-27.551-51.249-51.249-14.075-35.49-10.827-119.7-10.827-158.919 0-39.217-3.129-123.548 10.827-158.917 9.383-23.579 27.548-41.744 51.249-51.249 35.487-14.075 119.698-10.825 158.917-10.825s123.548-3.129 158.917 10.825c23.579 9.386 41.744 27.551 51.249 51.249 14.075 35.49 10.827 119.7 10.827 158.917 0 39.219 3.247 123.551-10.827 158.919z"></path>
</svg>
